<mxfile host="app.diagrams.net" modified="2023-11-17T22:30:51.810Z" agent="Mozilla/5.0 (Windows NT 10.0; Win64; x64) AppleWebKit/537.36 (KHTML, like Gecko) Chrome/119.0.0.0 Safari/537.36" etag="N6lPDLsa27svoHijrXSn" version="22.1.2" type="device">
  <diagram name="Page-1" id="CamPUbGVAPng5N8DUrZJ">
    <mxGraphModel dx="1366" dy="722" grid="1" gridSize="10" guides="1" tooltips="1" connect="1" arrows="1" fold="1" page="1" pageScale="1" pageWidth="850" pageHeight="1100" math="0" shadow="0">
      <root>
        <mxCell id="0" />
        <mxCell id="1" parent="0" />
        <mxCell id="iZFFI8zGrVEnUDp0UTtO-1" value="main.py" style="swimlane;fontStyle=1;align=center;verticalAlign=top;childLayout=stackLayout;horizontal=1;startSize=26;horizontalStack=0;resizeParent=1;resizeParentMax=0;resizeLast=0;collapsible=1;marginBottom=0;whiteSpace=wrap;html=1;" vertex="1" parent="1">
          <mxGeometry x="140" y="200" width="570" height="110" as="geometry" />
        </mxCell>
        <mxCell id="iZFFI8zGrVEnUDp0UTtO-2" value="" style="line;strokeWidth=1;fillColor=none;align=left;verticalAlign=middle;spacingTop=-1;spacingLeft=3;spacingRight=3;rotatable=0;labelPosition=right;points=[];portConstraint=eastwest;strokeColor=inherit;" vertex="1" parent="iZFFI8zGrVEnUDp0UTtO-1">
          <mxGeometry y="26" width="570" height="8" as="geometry" />
        </mxCell>
        <mxCell id="iZFFI8zGrVEnUDp0UTtO-3" value="+ main()&lt;br&gt;+ instantiateUsers(monitor: ReferenceMonitor): list&lt;br&gt;+ instantiateCreateAccountUser(newUserID: str, registeredUsers: list, monitor: ReferenceMonitor): list&lt;br&gt;+ printUserLoggedIn(loggedInUser: str, registeredUsers: list): None" style="text;strokeColor=none;fillColor=none;align=left;verticalAlign=top;spacingLeft=4;spacingRight=4;overflow=hidden;rotatable=0;points=[[0,0.5],[1,0.5]];portConstraint=eastwest;whiteSpace=wrap;html=1;" vertex="1" parent="iZFFI8zGrVEnUDp0UTtO-1">
          <mxGeometry y="34" width="570" height="76" as="geometry" />
        </mxCell>
        <mxCell id="iZFFI8zGrVEnUDp0UTtO-5" value="Encrypt.py" style="swimlane;fontStyle=1;align=center;verticalAlign=top;childLayout=stackLayout;horizontal=1;startSize=26;horizontalStack=0;resizeParent=1;resizeParentMax=0;resizeLast=0;collapsible=1;marginBottom=0;whiteSpace=wrap;html=1;" vertex="1" parent="1">
          <mxGeometry x="285" y="630" width="280" height="130" as="geometry" />
        </mxCell>
        <mxCell id="iZFFI8zGrVEnUDp0UTtO-6" value="- filePath: str&lt;br&gt;- weakPswdLst: list" style="text;strokeColor=none;fillColor=none;align=left;verticalAlign=top;spacingLeft=4;spacingRight=4;overflow=hidden;rotatable=0;points=[[0,0.5],[1,0.5]];portConstraint=eastwest;whiteSpace=wrap;html=1;" vertex="1" parent="iZFFI8zGrVEnUDp0UTtO-5">
          <mxGeometry y="26" width="280" height="34" as="geometry" />
        </mxCell>
        <mxCell id="iZFFI8zGrVEnUDp0UTtO-7" value="" style="line;strokeWidth=1;fillColor=none;align=left;verticalAlign=middle;spacingTop=-1;spacingLeft=3;spacingRight=3;rotatable=0;labelPosition=right;points=[];portConstraint=eastwest;strokeColor=inherit;" vertex="1" parent="iZFFI8zGrVEnUDp0UTtO-5">
          <mxGeometry y="60" width="280" height="8" as="geometry" />
        </mxCell>
        <mxCell id="iZFFI8zGrVEnUDp0UTtO-8" value="+ Encrypt(): None&lt;br&gt;+ createAccount(username: str, passwd: str): bool&lt;br&gt;+ login(username: str, passwd: str): bool" style="text;strokeColor=none;fillColor=none;align=left;verticalAlign=top;spacingLeft=4;spacingRight=4;overflow=hidden;rotatable=0;points=[[0,0.5],[1,0.5]];portConstraint=eastwest;whiteSpace=wrap;html=1;" vertex="1" parent="iZFFI8zGrVEnUDp0UTtO-5">
          <mxGeometry y="68" width="280" height="62" as="geometry" />
        </mxCell>
        <mxCell id="iZFFI8zGrVEnUDp0UTtO-9" value="UI.py" style="swimlane;fontStyle=1;align=center;verticalAlign=top;childLayout=stackLayout;horizontal=1;startSize=26;horizontalStack=0;resizeParent=1;resizeParentMax=0;resizeLast=0;collapsible=1;marginBottom=0;whiteSpace=wrap;html=1;" vertex="1" parent="1">
          <mxGeometry x="345" y="430" width="160" height="100" as="geometry" />
        </mxCell>
        <mxCell id="iZFFI8zGrVEnUDp0UTtO-10" value="- encrypt: Encrypt" style="text;strokeColor=none;fillColor=none;align=left;verticalAlign=top;spacingLeft=4;spacingRight=4;overflow=hidden;rotatable=0;points=[[0,0.5],[1,0.5]];portConstraint=eastwest;whiteSpace=wrap;html=1;" vertex="1" parent="iZFFI8zGrVEnUDp0UTtO-9">
          <mxGeometry y="26" width="160" height="26" as="geometry" />
        </mxCell>
        <mxCell id="iZFFI8zGrVEnUDp0UTtO-11" value="" style="line;strokeWidth=1;fillColor=none;align=left;verticalAlign=middle;spacingTop=-1;spacingLeft=3;spacingRight=3;rotatable=0;labelPosition=right;points=[];portConstraint=eastwest;strokeColor=inherit;" vertex="1" parent="iZFFI8zGrVEnUDp0UTtO-9">
          <mxGeometry y="52" width="160" height="8" as="geometry" />
        </mxCell>
        <mxCell id="iZFFI8zGrVEnUDp0UTtO-12" value="+ UI(): None&lt;br&gt;+ renderUI(): str" style="text;strokeColor=none;fillColor=none;align=left;verticalAlign=top;spacingLeft=4;spacingRight=4;overflow=hidden;rotatable=0;points=[[0,0.5],[1,0.5]];portConstraint=eastwest;whiteSpace=wrap;html=1;" vertex="1" parent="iZFFI8zGrVEnUDp0UTtO-9">
          <mxGeometry y="60" width="160" height="40" as="geometry" />
        </mxCell>
        <mxCell id="iZFFI8zGrVEnUDp0UTtO-13" value="passwd.txt" style="html=1;whiteSpace=wrap;" vertex="1" parent="1">
          <mxGeometry x="345" y="850" width="160" height="50" as="geometry" />
        </mxCell>
        <mxCell id="iZFFI8zGrVEnUDp0UTtO-14" value="" style="html=1;verticalAlign=bottom;endArrow=open;dashed=1;endSize=8;curved=0;rounded=0;entryX=0.5;entryY=0;entryDx=0;entryDy=0;exitX=0.5;exitY=1;exitDx=0;exitDy=0;exitPerimeter=0;" edge="1" parent="1" source="iZFFI8zGrVEnUDp0UTtO-8" target="iZFFI8zGrVEnUDp0UTtO-13">
          <mxGeometry relative="1" as="geometry">
            <mxPoint x="240" y="780" as="sourcePoint" />
            <mxPoint x="241" y="855" as="targetPoint" />
          </mxGeometry>
        </mxCell>
        <mxCell id="iZFFI8zGrVEnUDp0UTtO-16" value="1" style="endArrow=open;html=1;endSize=12;startArrow=diamondThin;startSize=14;startFill=1;edgeStyle=orthogonalEdgeStyle;align=left;verticalAlign=bottom;rounded=0;entryX=0.5;entryY=0;entryDx=0;entryDy=0;exitX=0.499;exitY=1.003;exitDx=0;exitDy=0;exitPerimeter=0;" edge="1" parent="1" source="iZFFI8zGrVEnUDp0UTtO-12" target="iZFFI8zGrVEnUDp0UTtO-5">
          <mxGeometry x="0.8569" y="5" relative="1" as="geometry">
            <mxPoint x="185" y="480" as="sourcePoint" />
            <mxPoint x="345" y="480" as="targetPoint" />
            <mxPoint as="offset" />
          </mxGeometry>
        </mxCell>
        <mxCell id="iZFFI8zGrVEnUDp0UTtO-17" value="" style="endArrow=open;endFill=1;endSize=12;html=1;rounded=0;exitX=0.5;exitY=0;exitDx=0;exitDy=0;" edge="1" parent="1" source="iZFFI8zGrVEnUDp0UTtO-9" target="iZFFI8zGrVEnUDp0UTtO-3">
          <mxGeometry width="160" relative="1" as="geometry">
            <mxPoint x="230" y="300" as="sourcePoint" />
            <mxPoint x="425" y="310" as="targetPoint" />
          </mxGeometry>
        </mxCell>
        <mxCell id="iZFFI8zGrVEnUDp0UTtO-18" value="Password File" style="text;html=1;align=center;verticalAlign=middle;resizable=0;points=[];autosize=1;strokeColor=none;fillColor=none;fontSize=30;fontStyle=1" vertex="1" parent="1">
          <mxGeometry x="310" y="70" width="230" height="50" as="geometry" />
        </mxCell>
      </root>
    </mxGraphModel>
  </diagram>
</mxfile>
